<svg width="24" height="24" viewBox="0 0 24 24" fill="none" xmlns="http://www.w3.org/2000/svg">
    <path fill-rule="evenodd" clip-rule="evenodd"
          d="M11.7491 5C11.9764 5 12.1944 5.09029 12.3551 5.25101C12.5158 5.41172 12.6061 5.6297 12.6061 5.85699V15.7861L16.2843 12.1061C16.3639 12.0265 16.4585 11.9633 16.5626 11.9201C16.6667 11.877 16.7783 11.8548 16.891 11.8548C17.0037 11.8548 17.1153 11.877 17.2194 11.9201C17.3235 11.9633 17.4181 12.0265 17.4978 12.1061C17.5774 12.1858 17.6406 12.2804 17.6838 12.3845C17.7269 12.4886 17.7491 12.6002 17.7491 12.7129C17.7491 12.8256 17.7269 12.9372 17.6838 13.0413C17.6406 13.1454 17.5774 13.24 17.4978 13.3196L12.3558 18.4616C12.2762 18.5414 12.1817 18.6047 12.0775 18.6479C11.9734 18.6911 11.8618 18.7133 11.7491 18.7133C11.6364 18.7133 11.5247 18.6911 11.4206 18.6479C11.3165 18.6047 11.2219 18.5414 11.1423 18.4616L6.00041 13.3196C5.92073 13.24 5.85752 13.1454 5.8144 13.0413C5.77128 12.9372 5.74908 12.8256 5.74908 12.7129C5.74908 12.6002 5.77128 12.4886 5.8144 12.3845C5.85752 12.2804 5.92073 12.1858 6.00041 12.1061C6.16133 11.9452 6.37958 11.8548 6.60716 11.8548C6.71984 11.8548 6.83142 11.877 6.93553 11.9201C7.03963 11.9633 7.13422 12.0265 7.2139 12.1061L10.8921 15.7861V5.85699C10.8921 5.6297 10.9824 5.41172 11.1431 5.25101C11.3038 5.09029 11.5218 5 11.7491 5Z"
          fill="#08123A"/>
</svg>
